<svg width="42" height="48" viewBox="0 0 42 48" fill="none" xmlns="http://www.w3.org/2000/svg">
<path fill-rule="evenodd" clip-rule="evenodd" d="M12.6536 3.10022C11.523 4.15237 10.6263 5.43128 10.022 6.85365C9.41759 8.27602 9.1191 9.80997 9.14591 11.3556H7.22961L8.61422 13.7523L10.0468 16.149L11.4462 13.7523L12.7754 11.3556H10.8444C10.8464 10.0518 11.1114 8.76181 11.6234 7.56312C12.1355 6.36442 12.884 5.28171 13.824 4.37995C18.3951 0.0673368 24.4024 2.30132 29.3981 4.48721C28.4428 3.21871 27.2308 2.16666 25.8414 1.39999C24.4521 0.63332 22.9167 0.169316 21.3358 0.0383718C19.755 -0.0925727 18.1644 0.112496 16.6682 0.640147C15.1719 1.1678 13.8039 2.00612 12.6536 3.10022ZM30.4098 44.107C31.5342 43.059 32.4306 41.7898 33.0431 40.3789C33.6555 38.968 33.9708 37.4457 33.9692 35.9072H35.8855L34.5045 33.5104L33.0682 31.11L31.6836 33.5104L30.3581 35.9072H32.2043C32.2037 37.2155 31.9343 38.5096 31.4127 39.7091C30.8912 40.9085 30.1288 41.9876 29.1729 42.8791C24.5464 47.1399 18.5945 44.8505 13.5951 42.561C14.5418 43.8447 15.7487 44.9132 17.1368 45.6966C18.5248 46.48 20.0626 46.9605 21.6491 47.1065C23.2356 47.2525 24.835 47.0607 26.3423 46.5438C27.8496 46.0268 29.2307 45.1964 30.395 44.107H30.4098ZM2.3484 18.9156H20.256C20.8831 18.9107 21.4868 19.1545 21.935 19.5938C22.3833 20.0332 22.6398 20.6324 22.6486 21.2605V39.2063C22.6501 39.5215 22.5892 39.8338 22.4695 40.1253C22.3497 40.4167 22.1736 40.6815 21.9511 40.9044C21.7286 41.1272 21.4643 41.3037 21.1733 41.4236C20.8824 41.5435 20.5706 41.6045 20.256 41.6031H2.34102C1.71361 41.5953 1.11489 41.3386 0.676085 40.8893C0.237281 40.4401 -0.00580703 39.8349 0.00010538 39.2063V21.2605C0.00588236 20.6404 0.254368 20.0473 0.692128 19.6088C1.12989 19.1703 1.72196 18.9214 2.34102 18.9156H2.3484ZM14.0308 24.4118C14.4958 24.4132 14.9591 24.4678 15.4117 24.5745V26.054C14.9676 25.9018 14.5001 25.8291 14.0308 25.8395C13.1279 25.8328 12.2451 26.1057 11.5029 26.6208C10.7607 27.1358 10.1954 27.8679 9.88436 28.717H12.6462V29.8895H9.62221V30.6292H12.6536V31.8091H9.89175C10.2032 32.6559 10.7677 33.3858 11.5084 33.8995C12.2491 34.4131 13.13 34.6854 14.0308 34.6792C14.5065 34.6685 14.9766 34.5733 15.4191 34.3981V35.8776C14.966 35.9813 14.5029 36.0347 14.0382 36.0366C12.7671 36.043 11.5286 35.6335 10.511 34.8705C9.49338 34.1075 8.7522 33.0325 8.40006 31.8091H7.22961V30.6329H8.1896V29.8932H7.22961V28.717H8.40006C8.73542 27.479 9.46882 26.3863 10.4867 25.608C11.5046 24.8298 12.7503 24.4093 14.0308 24.4118ZM21.744 5.97776H39.659C40.2864 5.98557 40.8851 6.24223 41.3239 6.6915C41.7627 7.14076 42.0058 7.74598 41.9999 8.37448V26.3203C41.9941 26.9401 41.7455 27.5328 41.3076 27.9707C40.8698 28.4086 40.2777 28.6567 39.659 28.6615H24.4541V19.8218C24.4512 19.4617 24.3775 19.1058 24.237 18.7743C24.0965 18.4429 23.8922 18.1425 23.6356 17.8903C23.3791 17.6381 23.0753 17.4391 22.7419 17.3047C22.4084 17.1702 22.0517 17.1031 21.6923 17.107H19.3514V8.37448C19.3499 8.05933 19.4108 7.74701 19.5305 7.45556C19.6503 7.16412 19.8264 6.89932 20.0489 6.67647C20.2714 6.45362 20.5357 6.27714 20.8267 6.15721C21.1176 6.03728 21.4294 5.97629 21.744 5.97776ZM30.3027 23.709V22.433C29.68 22.4028 29.0681 22.2587 28.4972 22.0077C27.9996 21.7953 27.5739 21.4433 27.2714 20.9942C26.9203 20.5132 26.7175 19.9398 26.688 19.3446L28.1649 19.0783C28.2138 19.6455 28.4355 20.1839 28.8 20.6207C29.1882 21.0361 29.7122 21.2985 30.2769 21.3604V17.3844C29.6267 17.2606 29.0024 17.0267 28.4307 16.6927C27.9668 16.5303 27.5746 16.2095 27.323 15.7866C27.059 15.3753 26.9299 14.8916 26.9538 14.4033C26.9517 13.9754 27.051 13.5531 27.2436 13.1712C27.4362 12.7892 27.7165 12.4585 28.0615 12.2063C28.5378 11.8364 29.28 11.6219 30.2769 11.5146V10.9302H31.1815V11.5146C31.9045 11.5679 32.6056 11.7868 33.2307 12.1545C33.8473 12.6161 34.2646 13.2961 34.3975 14.0556L32.8615 14.2849C32.8302 13.8429 32.6415 13.4268 32.3298 13.1124C32.0188 12.8328 31.6344 12.648 31.2221 12.5798V16.2748C31.9606 16.4338 32.4442 16.5929 32.6584 16.6446C33.0658 16.8247 33.4573 17.0387 33.8289 17.2845C34.0881 17.5502 34.3025 17.8562 34.4639 18.1907C34.6318 18.5369 34.7225 18.9155 34.7298 19.3003C34.7381 19.7173 34.6517 20.1308 34.4771 20.5095C34.3025 20.8882 34.0442 21.2222 33.7218 21.4862C33.0265 22.0893 32.1417 22.4283 31.2221 22.4441V23.709H30.3027ZM30.3027 12.5798C29.7886 12.608 29.3003 12.8146 28.9218 13.1642C28.6298 13.4562 28.4612 13.8495 28.4508 14.2627C28.4405 14.6759 28.5893 15.0772 28.8664 15.3834C29.2673 15.7409 29.7692 15.9645 30.3027 16.0233V12.5798ZM31.2073 21.3678C31.7306 21.3205 32.22 21.0885 32.5882 20.7131C32.7867 20.5441 32.943 20.3311 33.0449 20.091C33.1468 19.8509 33.1915 19.5903 33.1753 19.3299C33.1908 19.1312 33.1602 18.9317 33.0859 18.7469C33.0116 18.5621 32.8956 18.397 32.747 18.2646C32.4812 17.9429 32.0086 17.732 31.2073 17.5693V21.3678Z" fill="#0DFBA4"/>
</svg>
