<svg width="43" height="51" viewBox="0 0 43 51" fill="none" xmlns="http://www.w3.org/2000/svg">
<g clip-path="url(#clip0_217_2258)">
<path fill-rule="evenodd" clip-rule="evenodd" d="M15.6334 10.1742C13.0279 11.0506 11.1742 13.4336 13.1405 15.9337C13.8232 16.6507 14.6836 17.1721 15.6334 17.4443V10.1742ZM24.8816 8.1991C28.364 9.25433 31.4475 11.3422 33.7277 14.1889H27.3867C26.7284 12.1241 25.8943 10.1201 24.8937 8.1991H24.8816ZM19.6544 7.3913C20.5871 7.38298 21.5186 7.46141 22.4369 7.62556C23.6395 9.70244 24.6104 11.9062 25.332 14.197H19.7026L19.6544 7.3913ZM28.0783 16.5598H35.3843C36.6968 18.9625 37.485 21.6185 37.6964 24.3509H29.0634C28.9988 21.727 28.6688 19.1165 28.0783 16.5598ZM19.7026 16.5598H26.0517C26.6972 19.1063 27.0281 21.7231 27.0368 24.3509H19.7026V16.5598ZM29.0071 26.6935H37.6883C37.4702 29.4237 36.6854 32.0777 35.3843 34.4847H27.8491C28.4879 31.9319 28.8757 29.3224 29.0071 26.6935ZM19.7026 26.6935H26.9403C26.7533 29.3341 26.2814 31.9464 25.533 34.4847H19.7026V26.6935ZM27.1736 36.7909H33.7518C31.4194 39.7162 28.2464 41.8486 24.6645 42.8978C25.6174 40.9151 26.4486 38.8756 27.1535 36.7909H27.1736ZM19.7026 2.01948C22.7664 2.00969 25.8016 2.61165 28.6317 3.79038C31.4619 4.96912 34.0306 6.70112 36.1885 8.88572C40.5541 13.3099 43.0034 19.287 43.0034 25.5162C43.0034 31.7453 40.5541 37.7224 36.1885 42.1466C31.8085 46.5205 25.8788 48.9684 19.7026 48.9522V45.5797C22.3495 45.6174 24.9775 45.1264 27.4337 44.135C29.89 43.1436 32.1256 41.6718 34.0107 39.805C35.8957 37.9381 37.3926 35.7136 38.4143 33.2606C39.436 30.8076 39.9621 28.1752 39.9621 25.5162C39.9621 22.8572 39.436 20.2247 38.4143 17.7717C37.3926 15.3187 35.8957 13.0942 34.0107 11.2274C32.1256 9.36055 29.89 7.88869 27.4337 6.89733C24.9775 5.90597 22.3495 5.41488 19.7026 5.4526V2.01948ZM19.7026 36.795H24.8374C24.0399 39.0847 23.0929 41.319 22.0026 43.4835C21.2467 43.54 20.4385 43.6006 19.6825 43.6006L19.7026 36.795ZM17.853 50.9838H15.6334V45.5918C7.18945 44.8931 1.56013 41.6377 0 32.9741L11.4074 31.6372C11.9864 34.7755 12.678 36.484 15.6334 37.9178V27.8689C11.8698 26.8187 9.14765 25.8898 7.52721 25.1345C0.579016 21.6892 -0.289508 11.8624 5.15485 6.62794C7.52721 4.36208 11.0013 3.08173 15.6334 2.84747V0H17.8329L17.853 50.9838Z" fill="#0DFBA4"/>
</g>
<defs>
<clipPath id="clip0_217_2258">
<rect width="43" height="51" fill="white"/>
</clipPath>
</defs>
</svg>
