<svg width="40" height="40" viewBox="0 0 40 40" fill="none" xmlns="http://www.w3.org/2000/svg">
<path fill-rule="evenodd" clip-rule="evenodd" d="M33.7155 17.4068C35.2605 17.4068 36.4591 15.6748 36.4591 14.1645C36.465 13.8003 36.3985 13.4385 36.2634 13.1002C36.1282 12.762 35.9271 12.4539 35.6718 12.1941C35.4165 11.9343 35.1121 11.7278 34.7762 11.5868C34.4404 11.4457 34.0798 11.3729 33.7155 11.3725C32.9818 11.3798 32.2808 11.6778 31.7665 12.2012C31.2522 12.7246 30.9665 13.4307 30.972 14.1645C30.972 15.6609 32.2225 17.4068 33.7155 17.4068ZM1.54843 39.7014H6.98351V28.232H1.54843V39.7014ZM20.1988 39.7014H25.5889V19.1042H20.1988V39.7014ZM10.7732 39.7014H16.1598V23.94H10.7732V39.7014ZM28.8797 6.63364L33.0193 8.82638L30.2238 0L22.4955 3.54025L26.4861 5.38659C26.408 5.51468 26.3408 5.6491 26.2852 5.78842C26.0843 6.13482 25.8868 6.43273 25.6859 6.7826C25.5889 6.93155 25.4884 7.129 25.388 7.28142C25.29 7.47548 25.1741 7.65988 25.0416 7.8322C24.9448 8.02583 24.8288 8.2092 24.6952 8.37952C24.5916 8.56922 24.4759 8.75204 24.3488 8.92684C24.0474 9.27325 23.7495 9.67854 23.4481 10.0769C23.1467 10.4753 22.8488 10.8251 22.5024 11.22C22.156 11.6149 21.8096 11.9128 21.4632 12.3216C21.0649 12.668 20.715 13.0664 20.3166 13.4162C20.0918 13.5707 19.8756 13.7372 19.6688 13.9151C19.4775 14.1247 19.2597 14.3087 19.0211 14.4624C18.6227 14.7638 18.1724 15.1136 17.722 15.4115C17.4761 15.5605 17.2752 15.7094 17.0292 15.8619L16.3364 16.3087C15.4231 16.8842 14.4744 17.4013 13.4959 17.8571C12.5283 18.3052 11.5711 18.7035 10.6242 19.0522C9.67854 19.3986 8.72939 19.6515 7.8322 19.9009C6.93502 20.1503 6.10018 20.3478 5.28613 20.4967C4.54136 20.6492 3.78966 20.7496 3.14189 20.8432C2.49411 20.9367 1.94333 20.9436 1.49647 20.9886C0.550783 21.0406 0 21.0406 0 21.0406V21.1896C1.79309 21.3421 3.59654 21.3259 5.38659 21.1411C6.18678 21.0406 7.03201 20.9436 7.98116 20.7947C8.93031 20.6457 9.87599 20.3963 10.8736 20.1469C11.8713 19.8975 12.8689 19.5476 13.8666 19.2012C14.9058 18.7994 15.945 18.401 16.96 17.9022L17.7047 17.5038L18.453 17.0535C18.9523 16.8014 19.4359 16.5191 19.9009 16.2083C20.1406 16.0532 20.3718 15.8855 20.5937 15.706C20.8329 15.5527 21.0642 15.3874 21.2866 15.2106L22.6341 14.1714C23.0324 13.825 23.4308 13.4232 23.8292 13.0733L24.9792 11.9267L25.9803 10.7732C26.1432 10.6016 26.2937 10.4187 26.4307 10.2259L26.881 9.62658C27.0283 9.47247 27.1616 9.30553 27.2793 9.12776C27.3996 8.93651 27.5327 8.75365 27.6777 8.58044C27.9271 8.17861 28.128 7.88763 28.329 7.54122C28.5289 7.2532 28.7117 6.95362 28.8763 6.64404L28.8797 6.63364ZM39.1021 19.3017C39.0536 19.2497 39.0536 19.1527 39.0017 19.1042C38.9497 19.0557 38.9532 19.0037 38.9047 18.9518C38.8562 18.8998 38.8042 18.8028 38.7523 18.7543C38.7003 18.7058 38.6553 18.7024 38.6033 18.6539C38.5513 18.6054 38.5063 18.6019 38.4544 18.5534C38.4024 18.5049 36.1612 17.7567 34.1659 17.6562L33.868 18.2036L34.6162 23.9019L33.7155 25.4469L32.8703 23.9019L33.5631 18.2139L33.3172 17.6666C31.3219 17.7671 29.1291 18.5638 29.0287 18.5638C28.9282 18.5638 28.8797 18.6643 28.8278 18.6643C28.7758 18.6643 28.7308 18.7128 28.6788 18.7647C28.6269 18.8167 28.5818 18.9137 28.5299 18.9622C28.4779 19.0107 28.4294 19.0626 28.4294 19.1146C28.4294 19.1666 28.3774 19.2601 28.3324 19.312C28.3362 19.3392 28.3334 19.3669 28.3244 19.3928C28.3153 19.4187 28.3003 19.4421 28.2805 19.461L27.4318 27.2828C27.4149 27.4235 27.426 27.5661 27.4644 27.7024C27.5029 27.8387 27.568 27.9661 27.6559 28.0772C27.7438 28.1883 27.8528 28.2809 27.9766 28.3496C28.1005 28.4184 28.2367 28.462 28.3774 28.4779H28.5299C28.79 28.479 29.0411 28.3824 29.2335 28.2073C29.4259 28.0322 29.5457 27.7913 29.5691 27.5322L30.3693 20.3998C30.4747 20.3885 30.5764 20.3542 30.6672 20.2993V27.7297L29.8254 38.4509C29.8088 38.6214 29.827 38.7936 29.879 38.9568C29.9309 39.1201 30.0155 39.2711 30.1276 39.4007C30.2397 39.5303 30.3769 39.6358 30.531 39.7107C30.6851 39.7856 30.8528 39.8284 31.024 39.8365H31.1244C31.4538 39.8442 31.7732 39.7234 32.015 39.4997C32.2568 39.276 32.4021 38.9669 32.42 38.6379L33.2167 28.9629C33.3757 29.0258 33.5446 29.0598 33.7155 29.0633C33.9029 29.0551 34.0882 29.0213 34.2663 28.9629L35.0146 38.6379C35.0399 38.9642 35.1873 39.2688 35.4275 39.491C35.6677 39.7132 35.9829 39.8366 36.3101 39.8365H36.4106C36.5818 39.8289 36.7496 39.7864 36.9038 39.7116C37.0579 39.6368 37.1952 39.5313 37.3071 39.4016C37.419 39.2718 37.5032 39.1205 37.5546 38.9571C37.6059 38.7936 37.6233 38.6213 37.6057 38.4509L36.7604 27.7124V20.2993C36.8507 20.3552 36.9527 20.3895 37.0583 20.3998L37.8551 27.5322C37.8858 27.7884 38.0077 28.025 38.1985 28.1986C38.3894 28.3723 38.6363 28.4714 38.8943 28.4779H39.0432C39.1843 28.4624 39.3209 28.4192 39.4451 28.3506C39.5694 28.282 39.6788 28.1894 39.7671 28.0783C39.8553 27.9672 39.9207 27.8397 39.9594 27.7031C39.998 27.5666 40.0093 27.4237 39.9924 27.2828L39.1437 19.4506C39.1437 19.4021 39.0917 19.3536 39.0917 19.3017H39.1021Z" fill="#009EE3"/>
</svg>
