<svg width="55" height="47" viewBox="0 0 55 47" fill="none" xmlns="http://www.w3.org/2000/svg">
<g clip-path="url(#clip0_194_1211)">
<path d="M0.924728 9.41842V38.464C0.927291 40.7271 1.83495 42.8968 3.44856 44.497C5.06218 46.0973 7.24998 46.9974 9.53198 47H39.333C41.3428 46.9974 43.2696 46.2045 44.6907 44.7951C46.1119 43.3857 46.9114 41.4749 46.914 39.4818V8.23739C46.914 6.4548 46.1999 4.74522 44.9289 3.48473C43.6579 2.22425 41.9341 1.51611 40.1366 1.51611H8.89297C6.78202 1.5237 4.75971 2.3587 3.26703 3.83903C1.77435 5.31936 0.932381 7.32493 0.924728 9.41842ZM9.63848 7.27721H37.9194C38.0453 7.27721 38.1809 7.40204 38.1809 7.66128L29.5736 23.6003C29.4381 23.7348 29.1863 23.7348 29.1863 23.6003L24.6842 13.6144C24.5584 13.4896 24.3066 13.4896 24.3066 13.6144L22.3702 17.3111L15.4476 31.0705H15.0604L11.8556 26.7401H11.4684L6.83072 32.9813C6.83072 33.2406 6.45312 33.1061 6.45312 32.8565V10.4362C6.45184 10.021 6.53336 9.60966 6.69299 9.22582C6.85261 8.84198 7.0872 8.49323 7.38324 8.19964C7.67928 7.90604 8.03094 7.6734 8.41798 7.51509C8.80503 7.35679 9.21981 7.27594 9.63848 7.27721ZM37.5322 41.2581H6.7339L6.48217 41.0084V40.8836L11.4877 33.8743H11.875L15.5929 38.8384H15.9802L22.409 26.3561L23.9484 23.4275C24.0743 23.3027 24.3357 23.3027 24.3357 23.4275L28.7022 33.615C28.8281 33.7495 29.0895 33.7495 29.0895 33.615L40.7466 11.3292C40.8724 11.0699 41.1339 11.1948 41.1339 11.454V37.4366C41.1641 37.9262 41.0936 38.4167 40.9268 38.8785C40.76 39.3403 40.5003 39.7636 40.1634 40.1228C39.8266 40.482 39.4197 40.7696 38.9673 40.968C38.515 41.1665 38.0267 41.2717 37.5322 41.2773" fill="#F2F2F2"/>
</g>
<defs>
<clipPath id="clip0_194_1211">
<rect width="45.9892" height="45.4839" fill="white" transform="translate(0.924728 1.51611)"/>
</clipPath>
</defs>
</svg>
