<svg width="127" height="47" viewBox="0 0 127 47" fill="none" xmlns="http://www.w3.org/2000/svg">
<g clip-path="url(#clip0_194_1210)">
<path d="M0.924728 9.41842V38.464C0.927291 40.7271 1.83495 42.8968 3.44856 44.497C5.06218 46.0973 7.24998 46.9974 9.53198 47H39.333C41.3428 46.9974 43.2696 46.2045 44.6907 44.7951C46.1119 43.3857 46.9114 41.4749 46.914 39.4818V8.23739C46.914 6.4548 46.1999 4.74522 44.9289 3.48473C43.6579 2.22425 41.9341 1.51611 40.1366 1.51611H8.89297C6.78202 1.5237 4.75971 2.3587 3.26703 3.83903C1.77435 5.31936 0.932381 7.32493 0.924728 9.41842ZM9.63848 7.27721H37.9194C38.0453 7.27721 38.1809 7.40204 38.1809 7.66128L29.5736 23.6003C29.4381 23.7348 29.1863 23.7348 29.1863 23.6003L24.6842 13.6144C24.5584 13.4896 24.3066 13.4896 24.3066 13.6144L22.3702 17.3111L15.4476 31.0705H15.0604L11.8556 26.7401H11.4684L6.83072 32.9813C6.83072 33.2406 6.45312 33.1061 6.45312 32.8565V10.4362C6.45184 10.021 6.53336 9.60966 6.69299 9.22582C6.85261 8.84198 7.0872 8.49323 7.38324 8.19964C7.67928 7.90604 8.03094 7.6734 8.41798 7.51509C8.80503 7.35679 9.21981 7.27594 9.63848 7.27721ZM37.5322 41.2581H6.7339L6.48217 41.0084V40.8836L11.4877 33.8743H11.875L15.5929 38.8384H15.9802L22.409 26.3561L23.9484 23.4275C24.0743 23.3027 24.3357 23.3027 24.3357 23.4275L28.7022 33.615C28.8281 33.7495 29.0895 33.7495 29.0895 33.615L40.7466 11.3292C40.8724 11.0699 41.1339 11.1948 41.1339 11.454V37.4366C41.1641 37.9262 41.0936 38.4167 40.9268 38.8785C40.76 39.3403 40.5003 39.7636 40.1634 40.1228C39.8266 40.482 39.4197 40.7696 38.9673 40.968C38.515 41.1665 38.0267 41.2717 37.5322 41.2773" fill="#F2F2F2"/>
</g>
<path d="M56.476 18.5V5.36H59.428V18.5H56.476ZM59.068 13.208V10.76H64.144V13.208H59.068ZM59.068 7.808V5.36H64.36V7.808H59.068ZM70.6582 18.842C69.8182 18.842 69.0742 18.698 68.4262 18.41C67.7902 18.122 67.2562 17.738 66.8242 17.258C66.4042 16.766 66.0802 16.22 65.8522 15.62C65.6362 15.008 65.5282 14.384 65.5282 13.748V13.388C65.5282 12.728 65.6362 12.098 65.8522 11.498C66.0802 10.886 66.4042 10.34 66.8242 9.86C67.2442 9.38 67.7662 9.002 68.3902 8.726C69.0262 8.438 69.7462 8.294 70.5502 8.294C71.6062 8.294 72.4942 8.534 73.2142 9.014C73.9462 9.482 74.5042 10.1 74.8882 10.868C75.2722 11.624 75.4642 12.452 75.4642 13.352V14.324H66.7342V12.686H73.7182L72.7822 13.442C72.7822 12.854 72.6982 12.35 72.5302 11.93C72.3622 11.51 72.1102 11.192 71.7742 10.976C71.4502 10.748 71.0422 10.634 70.5502 10.634C70.0462 10.634 69.6202 10.748 69.2722 10.976C68.9242 11.204 68.6602 11.54 68.4802 11.984C68.3002 12.416 68.2102 12.95 68.2102 13.586C68.2102 14.174 68.2942 14.69 68.4622 15.134C68.6302 15.566 68.8942 15.902 69.2542 16.142C69.6142 16.382 70.0822 16.502 70.6582 16.502C71.1862 16.502 71.6182 16.4 71.9542 16.196C72.2902 15.992 72.5182 15.74 72.6382 15.44H75.2842C75.1402 16.1 74.8582 16.688 74.4382 17.204C74.0182 17.72 73.4902 18.122 72.8542 18.41C72.2182 18.698 71.4862 18.842 70.6582 18.842ZM77.3726 18.5V8.636H79.6586V12.866H79.4966C79.4966 11.858 79.6226 11.018 79.8746 10.346C80.1386 9.674 80.5346 9.17 81.0626 8.834C81.5906 8.498 82.2326 8.33 82.9886 8.33H83.1146C84.2666 8.33 85.1426 8.708 85.7426 9.464C86.3546 10.208 86.6606 11.342 86.6606 12.866V18.5H83.7806V12.704C83.7806 12.176 83.6246 11.744 83.3126 11.408C83.0006 11.072 82.5806 10.904 82.0526 10.904C81.5126 10.904 81.0746 11.078 80.7386 11.426C80.4146 11.762 80.2526 12.206 80.2526 12.758V18.5H77.3726ZM89.5828 18.5V8.636H92.4628V18.5H89.5828ZM88.2688 10.76V8.636H92.4628V10.76H88.2688ZM90.6988 7.664C90.1588 7.664 89.7568 7.526 89.4928 7.25C89.2408 6.962 89.1148 6.602 89.1148 6.17C89.1148 5.726 89.2408 5.366 89.4928 5.09C89.7568 4.802 90.1588 4.658 90.6988 4.658C91.2388 4.658 91.6348 4.802 91.8868 5.09C92.1508 5.366 92.2828 5.726 92.2828 6.17C92.2828 6.602 92.1508 6.962 91.8868 7.25C91.6348 7.526 91.2388 7.664 90.6988 7.664ZM94.0285 18.5L97.0885 13.208L97.0165 13.658L94.1365 8.636H97.2505L99.0325 11.984H99.3205L100.995 8.636H103.929L101.175 13.694L101.247 13.316L104.487 18.5H101.355L99.2305 14.918H98.9425L96.9445 18.5H94.0285ZM59.086 41.5V30.574H62.038V41.5H59.086ZM55.396 30.934V28.36H65.746V30.934H55.396ZM66.8433 41.5V31.636H69.1293V35.866H69.0753C69.0753 34.474 69.3693 33.4 69.9573 32.644C70.5573 31.888 71.4213 31.51 72.5493 31.51H72.9273V33.994H72.2073C71.4153 33.994 70.8033 34.21 70.3713 34.642C69.9393 35.062 69.7233 35.674 69.7233 36.478V41.5H66.8433ZM80.3072 41.5V38.584H79.8212V35.416C79.8212 34.912 79.7012 34.534 79.4612 34.282C79.2212 34.03 78.8372 33.904 78.3092 33.904C78.0452 33.904 77.6972 33.91 77.2652 33.922C76.8332 33.934 76.3892 33.952 75.9332 33.976C75.4772 34 75.0632 34.024 74.6912 34.048V31.618C74.9672 31.594 75.2912 31.57 75.6632 31.546C76.0352 31.522 76.4192 31.504 76.8152 31.492C77.2112 31.48 77.5832 31.474 77.9312 31.474C78.9392 31.474 79.7852 31.618 80.4692 31.906C81.1652 32.194 81.6932 32.632 82.0532 33.22C82.4132 33.796 82.5932 34.54 82.5932 35.452V41.5H80.3072ZM77.1572 41.752C76.4492 41.752 75.8252 41.626 75.2852 41.374C74.7572 41.122 74.3432 40.762 74.0432 40.294C73.7432 39.814 73.5932 39.244 73.5932 38.584C73.5932 37.864 73.7792 37.276 74.1512 36.82C74.5232 36.352 75.0452 36.01 75.7172 35.794C76.3892 35.566 77.1632 35.452 78.0392 35.452H80.1452V37.054H78.0212C77.5172 37.054 77.1272 37.18 76.8512 37.432C76.5872 37.672 76.4552 38.002 76.4552 38.422C76.4552 38.818 76.5872 39.142 76.8512 39.394C77.1272 39.634 77.5172 39.754 78.0212 39.754C78.3452 39.754 78.6332 39.7 78.8852 39.592C79.1492 39.472 79.3652 39.274 79.5332 38.998C79.7012 38.722 79.7972 38.338 79.8212 37.846L80.5052 38.566C80.4452 39.25 80.2772 39.826 80.0012 40.294C79.7372 40.762 79.3652 41.122 78.8852 41.374C78.4172 41.626 77.8412 41.752 77.1572 41.752ZM89.1047 41.824C88.4087 41.824 87.7727 41.698 87.1967 41.446C86.6327 41.194 86.1407 40.846 85.7207 40.402C85.3007 39.946 84.9767 39.412 84.7487 38.8C84.5327 38.188 84.4247 37.528 84.4247 36.82V36.406C84.4247 35.698 84.5267 35.038 84.7307 34.426C84.9467 33.814 85.2527 33.28 85.6487 32.824C86.0567 32.356 86.5427 31.996 87.1067 31.744C87.6707 31.48 88.3007 31.348 88.9967 31.348C89.7887 31.348 90.4727 31.522 91.0487 31.87C91.6247 32.206 92.0747 32.71 92.3987 33.382C92.7227 34.042 92.9027 34.858 92.9387 35.83L92.1827 35.128V28.36H95.0807V41.5H92.7947V37.414H93.1907C93.1547 38.35 92.9567 39.148 92.5967 39.808C92.2487 40.468 91.7747 40.972 91.1747 41.32C90.5747 41.656 89.8847 41.824 89.1047 41.824ZM89.8247 39.412C90.2687 39.412 90.6707 39.316 91.0307 39.124C91.4027 38.92 91.6967 38.626 91.9127 38.242C92.1407 37.858 92.2547 37.396 92.2547 36.856V36.19C92.2547 35.662 92.1407 35.218 91.9127 34.858C91.6847 34.498 91.3847 34.222 91.0127 34.03C90.6407 33.838 90.2387 33.742 89.8067 33.742C89.3267 33.742 88.8947 33.868 88.5107 34.12C88.1387 34.36 87.8447 34.696 87.6287 35.128C87.4127 35.548 87.3047 36.04 87.3047 36.604C87.3047 37.18 87.4127 37.678 87.6287 38.098C87.8447 38.518 88.1447 38.842 88.5287 39.07C88.9127 39.298 89.3447 39.412 89.8247 39.412ZM98.1609 41.5V31.636H101.041V41.5H98.1609ZM96.8469 33.76V31.636H101.041V33.76H96.8469ZM99.2769 30.664C98.7369 30.664 98.3349 30.526 98.0709 30.25C97.8189 29.962 97.6929 29.602 97.6929 29.17C97.6929 28.726 97.8189 28.366 98.0709 28.09C98.3349 27.802 98.7369 27.658 99.2769 27.658C99.8169 27.658 100.213 27.802 100.465 28.09C100.729 28.366 100.861 28.726 100.861 29.17C100.861 29.602 100.729 29.962 100.465 30.25C100.213 30.526 99.8169 30.664 99.2769 30.664ZM103.705 41.5V31.636H105.991V35.866H105.829C105.829 34.858 105.955 34.018 106.207 33.346C106.471 32.674 106.867 32.17 107.395 31.834C107.923 31.498 108.565 31.33 109.321 31.33H109.447C110.599 31.33 111.475 31.708 112.075 32.464C112.687 33.208 112.993 34.342 112.993 35.866V41.5H110.113V35.704C110.113 35.176 109.957 34.744 109.645 34.408C109.333 34.072 108.913 33.904 108.385 33.904C107.845 33.904 107.407 34.078 107.071 34.426C106.747 34.762 106.585 35.206 106.585 35.758V41.5H103.705ZM119.335 45.424C118.855 45.424 118.363 45.406 117.859 45.37C117.355 45.334 116.893 45.286 116.473 45.226V42.796C116.893 42.856 117.355 42.904 117.859 42.94C118.375 42.988 118.843 43.012 119.263 43.012C120.043 43.012 120.673 42.922 121.153 42.742C121.645 42.562 122.005 42.286 122.233 41.914C122.461 41.554 122.575 41.086 122.575 40.51V38.548L123.097 37.396C123.073 38.272 122.899 39.022 122.575 39.646C122.263 40.27 121.825 40.75 121.261 41.086C120.697 41.41 120.025 41.572 119.245 41.572C118.573 41.572 117.961 41.452 117.409 41.212C116.869 40.96 116.407 40.612 116.023 40.168C115.639 39.724 115.345 39.208 115.141 38.62C114.937 38.02 114.835 37.372 114.835 36.676V36.262C114.835 35.566 114.943 34.918 115.159 34.318C115.375 33.718 115.687 33.196 116.095 32.752C116.503 32.308 116.989 31.966 117.553 31.726C118.117 31.474 118.741 31.348 119.425 31.348C120.217 31.348 120.901 31.522 121.477 31.87C122.065 32.218 122.527 32.728 122.863 33.4C123.199 34.072 123.379 34.882 123.403 35.83L123.007 35.938V31.636H125.293V40.33C125.293 41.542 125.077 42.52 124.645 43.264C124.213 44.008 123.553 44.554 122.665 44.902C121.789 45.25 120.679 45.424 119.335 45.424ZM120.145 39.142C120.589 39.142 120.991 39.046 121.351 38.854C121.711 38.65 121.993 38.362 122.197 37.99C122.413 37.618 122.521 37.168 122.521 36.64V36.118C122.521 35.602 122.407 35.17 122.179 34.822C121.963 34.462 121.675 34.192 121.315 34.012C120.955 33.82 120.571 33.724 120.163 33.724C119.683 33.724 119.257 33.838 118.885 34.066C118.513 34.294 118.225 34.612 118.021 35.02C117.817 35.428 117.715 35.908 117.715 36.46C117.715 37.024 117.817 37.51 118.021 37.918C118.237 38.314 118.525 38.62 118.885 38.836C119.257 39.04 119.677 39.142 120.145 39.142Z" fill="white"/>
<defs>
<clipPath id="clip0_194_1210">
<rect width="45.9892" height="45.4839" fill="white" transform="translate(0.924728 1.51611)"/>
</clipPath>
</defs>
</svg>
